<?xml version="1.0" standalone="no"?>
<!DOCTYPE svg PUBLIC "-//W3C//DTD SVG 20010904//EN"
 "http://www.w3.org/TR/2001/REC-SVG-20010904/DTD/svg10.dtd">
<svg version="1.0" xmlns="http://www.w3.org/2000/svg"
 width="700.000000pt" height="700.000000pt" viewBox="0 0 700.000000 700.000000"
 preserveAspectRatio="xMidYMid meet">
<metadata>
Created by potrace 1.11, written by Peter Selinger 2001-2013
</metadata>
<g transform="translate(0.000000,700.000000) scale(0.100000,-0.100000)"
fill="#000000" stroke="none">
<path d="M4175 6143 c-36 -2 -210 -20 -275 -28 -138 -18 -411 -94 -585 -165
-118 -48 -408 -209 -467 -259 -7 -6 -34 -28 -60 -48 -27 -19 -48 -41 -48 -47
0 -11 11 -23 145 -171 110 -121 168 -193 219 -272 26 -40 49 -73 52 -73 3 0
33 18 67 41 173 115 432 225 622 263 17 4 41 9 55 11 118 25 234 33 405 30
105 -1 199 -5 210 -8 11 -3 43 -8 70 -11 82 -11 317 -74 390 -105 77 -33 233
-107 245 -116 8 -7 38 -24 65 -40 104 -59 245 -173 372 -301 72 -73 134 -142
138 -154 3 -11 10 -20 14 -20 9 0 97 -124 148 -208 71 -117 164 -330 193 -442
5 -19 14 -53 20 -75 35 -131 58 -336 55 -495 -3 -116 -11 -224 -20 -260 -3 -8
-7 -31 -10 -50 -9 -54 -45 -203 -55 -225 -4 -11 -18 -49 -30 -85 -36 -104
-125 -276 -207 -399 -57 -86 -112 -150 -217 -256 -78 -77 -157 -153 -176 -168
-19 -14 -57 -44 -85 -65 -111 -86 -312 -194 -465 -250 -106 -39 -258 -77 -370
-92 -86 -12 -372 -16 -445 -6 -22 3 -60 8 -85 12 -94 12 -179 31 -350 79 -120
33 -341 130 -460 202 -30 18 -58 33 -63 33 -4 0 -109 -102 -233 -226 l-226
-226 83 -61 c288 -211 637 -366 969 -431 14 -3 34 -7 45 -9 11 -3 40 -8 65
-11 25 -3 55 -8 68 -11 49 -9 213 -18 337 -19 168 0 320 13 450 39 11 2 47 9
80 15 364 69 819 290 1134 552 114 95 272 253 358 359 154 189 329 493 411
714 67 180 130 428 147 580 4 33 9 69 12 80 3 11 6 117 8 235 3 192 -3 304
-19 395 -2 17 -8 50 -11 75 -60 425 -292 925 -580 1254 -191 219 -447 435
-675 570 -207 123 -546 255 -750 293 -14 2 -44 8 -68 14 -24 5 -60 11 -80 14
-20 3 -48 7 -62 10 -63 13 -367 24 -475 18z"/>
<path d="M2450 4550 l0 -351 -832 6 c-458 3 -873 7 -923 9 -88 4 -456 17 -545
20 l-45 1 1 -695 c1 -382 2 -697 3 -700 0 -3 526 -5 1168 -5 l1168 0 3 -333 2
-332 680 680 c374 374 680 682 680 686 0 3 -306 311 -680 685 l-680 680 0
-351z"/>
</g>
</svg>
