<svg xmlns="http://www.w3.org/2000/svg" xmlns:xlink="http://www.w3.org/1999/xlink" version="1.1" x="0px" y="0px" viewBox="0 0 512 512" enable-background="new 0 0 512 512" xml:space="preserve"><path d="M50,298.021v-84.045h142.859V172.23L276.776,256l-83.917,83.77v-41.748H50z M304.447,98.447  c-36.184,0-69.513,12.206-96.11,32.714l28.61,28.561c19.632-13.826,42.993-21.275,67.5-21.275c31.399,0,60.919,12.228,83.122,34.43  C409.772,195.081,422,224.601,422,256s-12.228,60.92-34.431,83.122c-22.203,22.203-51.723,34.431-83.122,34.431  c-24.507,0-47.868-7.449-67.5-21.275l-28.611,28.561c26.599,20.509,59.928,32.715,96.111,32.715  C391.461,413.553,462,343.014,462,256C462,168.986,391.461,98.447,304.447,98.447z"></path></svg>